<svg width="241" height="200" viewBox="0 0 241 200" fill="none" xmlns="http://www.w3.org/2000/svg">
<path d="M30.8027 83.8724L115.838 30.2033L200.873 83.8724V162.177H30.8027V83.8724Z" fill="#E6E7E8"/>
<path fill-rule="evenodd" clip-rule="evenodd" d="M30.4088 162.177C30.4088 162.394 30.5851 162.57 30.8026 162.57H200.873C201.088 162.589 201.278 162.431 201.299 162.216V83.9118C201.298 83.7761 201.226 83.6506 201.109 83.5813L116.043 29.9043C115.914 29.8264 115.753 29.8264 115.625 29.9043L30.5899 83.542C30.4749 83.612 30.4059 83.7379 30.4088 83.8724V162.177ZM200.519 161.784H31.1728V84.0928L115.838 30.6912L200.519 84.0928V161.784Z" fill="#231F20"/>
<path d="M136.553 62.7935C139.381 58.1276 140.098 52.4547 139.838 47.0098C139.649 41.0529 138.077 35.2213 135.246 29.9752C134.096 27.7222 132.408 25.7873 130.331 24.3415C127.779 22.7679 126.038 23.8301 123.541 23.4052C121.43 23.0433 119.225 21.5404 116.885 21.1549C111.489 20.2332 105.943 21.3918 101.369 24.3966C93.3661 29.8021 89.6719 40.133 81.4016 45.1529C73.2966 50.047 62.9232 48.5756 53.8336 51.2823C49.9969 52.4309 46.4222 54.318 43.3105 56.8372C41.1609 58.4812 39.4018 60.5796 38.1593 62.9823C36.0247 67.4357 36.584 72.7389 38.1593 77.4362C39.7346 82.2673 42.3969 86.8781 46.5242 89.8759C49.982 92.3701 54.2274 93.5189 58.4256 94.2742C64.1361 95.305 70.0514 95.6905 75.7541 94.4552C79.9628 93.6067 83.8855 91.7003 87.1514 88.916C88.5535 87.6649 89.3254 85.9575 90.6329 84.7143C92.4366 83.0069 95.2485 81.9605 97.3595 80.6543C100.66 78.6007 103.968 76.4134 107.733 75.4377C117.295 72.9514 130.788 72.2747 136.553 62.7935Z" fill="white"/>
<path fill-rule="evenodd" clip-rule="evenodd" d="M58.339 94.6598C61.57 95.2704 64.8492 95.5917 68.1375 95.6197C70.7195 95.6493 73.2971 95.3986 75.825 94.8722C80.1197 94.0078 84.1186 92.0511 87.435 89.1914C88.1536 88.5099 88.793 87.7498 89.3411 86.9253C89.8046 86.23 90.332 85.5794 90.9165 84.9819C92.2079 83.8935 93.6414 82.9856 95.1777 82.2831C96.0047 81.8582 96.7924 81.4254 97.58 80.9612L98.3677 80.4498L98.4322 80.4096C101.397 78.5652 104.449 76.6667 107.82 75.7996C109.626 75.3278 111.555 74.9344 113.597 74.5176L113.908 74.4542L113.909 74.454C122.463 72.7073 132.135 70.7323 136.86 63.0059C139.412 58.8279 140.507 53.4775 140.2 47.0256C140.019 41.0091 138.43 35.1186 135.561 29.8257C134.388 27.5179 132.655 25.5405 130.52 24.074C129.174 23.2437 127.58 22.9123 126.014 23.1377C125.212 23.2127 124.403 23.1942 123.604 23.0826C122.548 22.845 121.521 22.4942 120.54 22.0361C119.388 21.4753 118.171 21.0578 116.917 20.7929C111.433 19.8707 105.804 21.0601 101.164 24.1212C97.2571 26.7807 94.327 30.6282 91.4993 34.3499L91.4713 34.3867C88.4948 38.3015 85.4212 42.3441 81.2125 44.8854C76.3763 47.8045 70.8234 48.4183 64.9474 49.0634C61.162 49.3719 57.4112 50.0144 53.7391 50.9833C49.8589 52.1441 46.2438 54.0526 43.0979 56.6012C40.8982 58.2791 39.1052 60.4306 37.8521 62.8958C35.434 67.8842 36.5052 73.6831 37.797 77.6172C39.6086 83.125 42.5308 87.5076 46.2879 90.2064C50.045 92.9052 54.7 94.0067 58.339 94.6598ZM101.573 24.7585C105.043 22.4495 109.124 21.2276 113.294 21.2493C114.496 21.2585 115.694 21.3691 116.878 21.5798C118.064 21.8273 119.217 22.2156 120.312 22.7364C121.338 23.2208 122.416 23.5877 123.525 23.8301C124.379 23.9501 125.243 23.9739 126.101 23.9009C127.514 23.6654 128.965 23.9446 130.189 24.6877C132.218 26.0984 133.864 27.9912 134.978 30.1955C137.793 35.3889 139.35 41.1694 139.523 47.0728C139.822 53.3831 138.735 58.6233 136.293 62.6519C131.756 70.1109 122.226 72.0544 113.806 73.7618C111.624 74.2024 109.608 74.6194 107.686 75.1151C104.199 75.9995 101.095 77.9348 98.093 79.806L98.0447 79.836L97.2098 80.3553C96.4773 80.8038 95.6896 81.213 94.8469 81.6457C93.2492 82.3779 91.7598 83.3257 90.4202 84.4626C89.7967 85.0892 89.2349 85.7743 88.7425 86.5083C88.2232 87.2892 87.6182 88.0096 86.9388 88.6563C83.7159 91.4308 79.831 93.3278 75.6596 94.1641C70.7367 95.2341 65.1286 95.1712 58.4965 93.9831C54.9363 93.3379 50.3522 92.2442 46.7368 89.6398C43.1215 87.0355 40.2781 82.8024 38.5137 77.3812C37.2456 73.5651 36.2295 67.9865 38.5137 63.2184C39.7293 60.8607 41.457 58.8042 43.5705 57.1992C46.6435 54.7037 50.1755 52.8326 53.9675 51.6914C57.5954 50.7342 61.3016 50.1022 65.042 49.8031L65.096 49.7971C70.7583 49.1695 76.6284 48.5189 81.5827 45.5227C85.9132 42.9162 89.0359 38.8057 92.0544 34.8325L92.0743 34.8062L92.1152 34.7526C94.8986 31.0948 97.7719 27.3189 101.573 24.7585Z" fill="#231F20"/>
<path d="M168.689 55.0827L164.546 70.6617L174.526 72.4399L180.213 51.6285C180.213 51.6285 171.344 44.8461 169.973 44.7989C168.603 44.7517 168.689 55.0827 168.689 55.0827Z" fill="white"/>
<path fill-rule="evenodd" clip-rule="evenodd" d="M174.455 72.8333H174.526C174.692 72.8311 174.838 72.7235 174.889 72.5658L180.583 51.7544C180.623 51.5996 180.568 51.4357 180.441 51.3374C178.937 50.1965 171.391 44.4763 169.981 44.4291C169.786 44.4214 169.596 44.4989 169.462 44.6415C168.296 45.7667 168.296 53.4146 168.296 55.0826L164.184 70.5909C164.154 70.6967 164.17 70.8105 164.228 70.9037C164.287 70.9969 164.383 71.0606 164.491 71.0787L174.455 72.8333ZM174.258 71.9914L165.074 70.3706L169.107 55.2085C169.111 55.1746 169.111 55.1402 169.107 55.1062C169.076 50.7 169.422 45.6093 169.981 45.1923C170.738 45.2159 175.511 48.5363 179.772 51.778L174.258 71.9914Z" fill="#231F20"/>
<path d="M157.907 44.8933C157.907 44.8933 159.317 48.0406 161.349 48.552C163.381 49.0635 167.8 46.884 168.312 47.1672C168.824 47.4505 180.481 56.1685 181.615 56.4281C182.749 56.6878 184.837 53.9417 185.727 50.6764C185.727 50.6764 174.384 42.9498 173.644 42.1316C172.904 41.3133 172.022 36.4192 170.919 34.6253L157.907 44.8933Z" fill="white"/>
<path fill-rule="evenodd" clip-rule="evenodd" d="M181.489 56.8451C181.57 56.8528 181.652 56.8528 181.733 56.8451C183.269 56.8451 185.278 53.7136 186.089 50.8495C186.137 50.6887 186.073 50.5156 185.931 50.4247C181.387 47.3246 174.44 42.5092 173.92 41.9349C173.434 40.9625 173.069 39.9347 172.833 38.8741C172.469 37.3603 171.941 35.8907 171.257 34.4915C171.196 34.3983 171.099 34.3333 170.99 34.3105C170.878 34.2923 170.764 34.3208 170.675 34.3892L157.686 44.6179C157.544 44.7269 157.498 44.9209 157.576 45.0821C157.577 45.0843 157.578 45.0873 157.58 45.0911C157.687 45.319 159.124 48.3963 161.278 48.969C162.641 49.329 164.876 48.5917 166.52 48.0496L166.547 48.0406C166.735 47.9751 166.937 47.8956 167.132 47.8188C167.593 47.6374 168.017 47.4707 168.123 47.537C168.272 47.6314 169.485 48.5048 170.879 49.5277C177.062 54.0362 180.78 56.672 181.489 56.8451ZM168.501 46.821C168.401 46.7702 168.29 46.7458 168.178 46.7502C167.521 46.8287 166.878 46.9927 166.264 47.238L166.246 47.2438C164.789 47.7238 162.589 48.4485 161.443 48.1507C159.97 47.7809 158.781 45.7431 158.395 45.0035L170.769 35.2233C171.288 36.4574 171.717 37.7275 172.053 39.0236C172.581 40.8176 172.919 41.9506 173.321 42.3912C174.03 43.1859 183.324 49.5434 185.238 50.8417C184.285 54.0755 182.411 56.2471 181.67 56.0504C181.036 55.882 176.225 52.3948 172.877 49.9686C172.316 49.562 171.796 49.1853 171.344 48.8589C171.129 48.7028 170.928 48.5566 170.741 48.4201C169.31 47.3798 168.647 46.8975 168.501 46.821Z" fill="#231F20"/>
<path d="M170.304 37.5601C170.211 38.392 170.367 39.2327 170.753 39.9757C171.391 41.1166 174.219 42.6351 174.219 42.6351L176.188 38.701L172.328 35.9157L170.304 37.5601Z" fill="#231F20"/>
<path fill-rule="evenodd" clip-rule="evenodd" d="M174.038 42.9813C174.093 43.0126 174.155 43.0289 174.219 43.0285C174.26 43.0261 174.3 43.0154 174.337 42.9971C174.439 42.9662 174.524 42.8952 174.573 42.8004L176.542 38.8662C176.624 38.6946 176.571 38.4893 176.416 38.3784L172.565 35.5931C172.422 35.4801 172.219 35.4801 172.076 35.5931L170.052 37.2611C169.978 37.3225 169.93 37.4097 169.918 37.505C169.814 38.4211 169.987 39.3474 170.414 40.1645C171.084 41.3683 173.73 42.824 174.038 42.9813ZM171.1 39.7868C170.778 39.1664 170.634 38.4695 170.682 37.7726L172.344 36.3956L175.684 38.8112L174.053 42.1001C173.14 41.5729 171.509 40.5737 171.1 39.7868Z" fill="#231F20"/>
<path d="M182.655 48.5914C182.655 48.5914 183.687 45.3418 181.867 45.1136C181.834 44.532 181.499 44.01 180.984 43.7367C180.469 43.4633 179.848 43.4782 179.347 43.776C179.347 43.776 178.764 41.3605 176.858 41.8483C174.952 42.3361 173.439 46.8918 173.707 48.0406C173.975 49.1893 175.456 48.4891 176.204 47.4111C176.204 47.4111 175.235 49.2051 175.881 49.6772C176.826 50.3696 177.819 49.1421 178.622 48.2452C178.622 48.2452 177.433 50.346 179.181 50.5348C180.528 50.6843 181.781 47.9698 181.781 47.9698L182.655 48.5914Z" fill="white"/>
<path fill-rule="evenodd" clip-rule="evenodd" d="M179.102 50.9361H179.252C180.457 50.9361 181.465 49.3467 181.843 48.5442L182.379 48.914C182.483 48.9843 182.614 49.0017 182.733 48.9612C182.852 48.9236 182.944 48.829 182.978 48.7094C183.072 48.4812 183.679 46.4906 182.978 45.3969C182.787 45.0956 182.493 44.8744 182.15 44.7753C182.009 44.1894 181.648 43.6799 181.142 43.3511C180.653 43.1035 180.083 43.0693 179.567 43.2567C179.338 42.6178 178.914 42.0671 178.354 41.6831C177.866 41.39 177.277 41.3157 176.731 41.4785C174.557 42.0371 172.99 46.8053 173.281 48.135C173.343 48.5721 173.675 48.9224 174.109 49.0084C174.506 49.0636 174.91 48.9772 175.251 48.7645C175.122 49.2101 175.26 49.6897 175.605 49.9998C176.385 50.5742 177.141 50.2122 177.795 49.6378C177.799 50.3561 178.383 50.9361 179.102 50.9361ZM178.819 47.9304C178.751 47.8777 178.668 47.8499 178.582 47.8518C178.472 47.852 178.367 47.8975 178.291 47.9776L178.126 48.1665C177.275 49.1107 176.621 49.7559 176.07 49.3546C175.889 49.2208 176.109 48.3711 176.511 47.5842C176.604 47.4004 176.543 47.176 176.369 47.0649C176.192 46.9568 175.961 47.005 175.841 47.1751C175.505 47.7467 174.924 48.1323 174.266 48.2216C174.211 48.2137 174.109 48.1901 174.053 47.9462C173.841 46.9469 175.251 42.6509 176.928 42.226C177.268 42.1197 177.636 42.1596 177.944 42.3361C178.438 42.7187 178.788 43.2566 178.937 43.8626C178.967 43.9755 179.045 44.07 179.15 44.1222C179.255 44.1697 179.375 44.1697 179.48 44.1222C179.876 43.893 180.355 43.8581 180.78 44.0278C181.146 44.2989 181.389 44.7033 181.457 45.153C181.483 45.328 181.621 45.4654 181.796 45.4913C182.016 45.5071 182.216 45.6232 182.34 45.806C182.598 46.4895 182.623 47.2392 182.41 47.9383L181.969 47.6314C181.874 47.5626 181.751 47.5422 181.639 47.5764C181.528 47.6079 181.436 47.6852 181.386 47.7888C181.016 48.5756 179.977 50.2358 179.189 50.1493C178.756 50.1021 178.645 49.929 178.645 49.8739C178.456 49.5041 178.756 48.7487 178.929 48.4419C179.024 48.2676 178.977 48.0503 178.819 47.9304Z" fill="#231F20"/>
<path d="M174.235 38.8426C174.235 38.8426 173.156 36.97 172.021 38.6145C170.887 40.2589 169.524 43.3354 171.415 43.6658C173.305 43.9963 174.723 40.4714 174.235 38.8426Z" fill="white"/>
<path fill-rule="evenodd" clip-rule="evenodd" d="M171.352 44.0671C171.454 44.0749 171.557 44.0749 171.659 44.0671C172.336 44.0354 172.967 43.7144 173.392 43.1859C174.43 41.9536 174.876 40.3292 174.613 38.7403L174.573 38.6538C174.572 38.6521 174.571 38.6502 174.57 38.648C174.491 38.5201 173.921 37.5909 173.069 37.5522C172.494 37.5741 171.973 37.897 171.698 38.402C170.887 39.5665 169.666 41.9034 170.217 43.2174C170.416 43.6827 170.849 44.0066 171.352 44.0671ZM172.344 38.819C172.502 38.5909 172.754 38.3155 173.014 38.3155H173.029C173.384 38.3312 173.738 38.7797 173.864 38.9843C174.034 40.2985 173.649 41.624 172.801 42.643C172.495 43.0624 171.996 43.2968 171.478 43.2646C171.243 43.2469 171.037 43.1018 170.942 42.8869C170.611 42.0922 171.391 40.196 172.344 38.819Z" fill="#231F20"/>
<path d="M168.682 56.137C168.682 56.137 167.437 50.1965 167.319 49.1343C167.122 47.3324 167.548 44.5156 169.131 44.075C170.714 43.6344 174.337 43.2174 173.739 44.8067C173.195 46.2545 170.021 46.5299 170.021 46.5299C170.021 46.5299 172.211 48.733 171.88 50.9282" fill="white"/>
<path d="M168.682 56.5304C168.497 56.5312 168.336 56.4036 168.296 56.2235C168.248 55.9796 167.051 50.2437 166.933 49.1421C166.728 47.301 167.122 44.193 169.028 43.6344C170.021 43.359 173.053 42.7925 173.943 43.7603C174.218 44.0658 174.283 44.5057 174.109 44.8776C173.66 46.0893 171.848 46.5692 170.8 46.7581C171.462 47.5921 172.525 49.2365 172.265 50.9203C172.244 51.0609 172.15 51.1795 172.017 51.2315C171.885 51.2836 171.735 51.2611 171.623 51.1725C171.512 51.084 171.457 50.9429 171.478 50.8023C171.777 48.8274 169.753 46.7581 169.737 46.7423C169.63 46.6321 169.593 46.471 169.642 46.3253C169.697 46.1829 169.829 46.0848 169.981 46.0735C170.769 46.0027 172.99 45.6014 173.36 44.6022C173.447 44.3897 173.36 44.3268 173.36 44.2953C172.943 43.8311 170.761 43.9727 169.233 44.3897C167.949 44.7438 167.524 47.3088 167.713 49.0241C167.831 50.0548 169.06 55.9403 169.068 55.9953C169.091 56.0978 169.071 56.2053 169.013 56.2929C168.955 56.3805 168.864 56.4407 168.76 56.4596L168.682 56.5304Z" fill="#231F20"/>
<path d="M191.941 33.6103C191.941 33.6103 178.819 32.312 173.463 35.4121C172.117 36.2149 170.827 37.1087 169.603 38.0873C166.697 40.3612 163.964 42.942 161.837 44.3819C157.615 47.2144 153.535 47.7888 150.755 43.2803C148.392 39.4328 149.77 37.6073 152.968 34.1847C154.543 32.493 157.883 29.6998 160.758 26.6076C162.457 24.8886 163.891 22.9262 165.011 20.7851C167.437 15.6865 166.752 7.87335 166.752 7.87335L191.941 33.6103Z" fill="white"/>
<path fill-rule="evenodd" clip-rule="evenodd" d="M154.677 46.8367C155.091 46.9296 155.514 46.9745 155.937 46.9705C157.741 46.9705 159.789 46.2152 162.073 44.7045C163.576 43.6314 165.022 42.4811 166.405 41.2582C167.5 40.3219 168.674 39.3462 169.863 38.4099C171.072 37.4423 172.345 36.559 173.675 35.7662C178.581 32.9136 190.425 33.8822 191.79 33.9938C191.867 34.0001 191.91 34.0037 191.918 34.0037C192.083 34.0164 192.24 33.9257 192.311 33.7755C192.381 33.6282 192.353 33.4529 192.24 33.3349L167.035 7.57434C166.921 7.45051 166.739 7.41545 166.587 7.48779C166.436 7.55901 166.345 7.71546 166.358 7.8812C166.366 7.95988 167.02 15.6707 164.657 20.6277C163.557 22.733 162.148 24.6613 160.474 26.3479C158.812 28.0947 157.04 29.7785 155.465 31.2419C154.331 32.2884 153.354 33.2011 152.677 33.925C149.447 37.387 147.88 39.3777 150.424 43.5006C151.312 45.1581 152.855 46.368 154.677 46.8367ZM165.374 20.966C167.295 16.8824 167.303 11.2331 167.209 8.8726L190.949 33.1618C187.688 32.9179 177.858 32.4615 173.297 35.1131C171.924 35.9267 170.608 36.8337 169.359 37.8276C168.327 38.6345 167.325 39.4764 166.347 40.298C166.19 40.4298 166.033 40.5611 165.878 40.6917C164.519 41.8948 163.096 43.0242 161.616 44.075C158.994 45.8296 156.717 46.5141 154.843 46.105C153.232 45.6706 151.874 44.5878 151.093 43.1151C148.841 39.4406 150.101 37.804 153.252 34.46C153.891 33.775 154.84 32.8941 155.928 31.8837L156 31.8163L156.029 31.7896C157.605 30.3249 159.382 28.6739 161.049 26.8829C162.777 25.136 164.234 23.1418 165.374 20.966Z" fill="#231F20"/>
<path d="M170.304 37.5601C167.398 39.8341 163.885 42.8476 161.837 44.374C157.158 47.8675 154.196 48.2373 151.14 43.9177C147.99 39.48 149.77 37.6231 152.968 34.1925C154.543 32.5009 157.883 29.7077 160.758 26.6154C160.758 26.6154 160.939 29.8335 164.145 33.7598C165.718 35.6746 167.885 37.0116 170.304 37.5601Z" fill="#231F20"/>
<path fill-rule="evenodd" clip-rule="evenodd" d="M155.181 47.4111C155.421 47.4496 155.663 47.468 155.906 47.4662C157.592 47.4662 159.561 46.585 162.073 44.6887C163.108 43.9193 164.504 42.7745 166.002 41.5467C166.112 41.4562 166.223 41.3652 166.335 41.2739C166.504 41.1359 166.674 40.9972 166.844 40.8584C168.099 39.8339 169.369 38.7964 170.549 37.8749C170.667 37.7746 170.721 37.6177 170.69 37.4657C170.649 37.3171 170.527 37.2045 170.375 37.1746C168.052 36.6348 165.97 35.3464 164.452 33.508C161.38 29.7391 161.152 26.5918 161.152 26.5918C161.142 26.4349 161.04 26.2988 160.892 26.2456C160.745 26.1897 160.579 26.2304 160.474 26.3479C158.813 28.0947 157.04 29.7785 155.465 31.2419C155.373 31.3271 155.281 31.4112 155.191 31.4942C154.174 32.4324 153.296 33.2415 152.637 33.9643L152.627 33.9759C149.435 37.3995 147.505 39.4695 150.818 44.1458C152.22 46.1286 153.606 47.1672 155.181 47.4111ZM156.001 31.8163C157.41 30.5102 158.986 29.0467 160.49 27.4731C161.075 29.883 162.222 32.1207 163.838 34.0037C165.294 35.7723 167.239 37.0746 169.43 37.749C168.264 38.6774 167.036 39.6845 165.838 40.6681C165.538 40.9142 165.24 41.1589 164.948 41.3994C163.67 42.4503 162.492 43.4189 161.601 44.0593C158.868 46.0971 156.93 46.884 155.3 46.6322C153.953 46.4197 152.732 45.4834 151.464 43.6895C148.534 39.5383 150.093 37.8602 153.226 34.4872L153.252 34.46C153.891 33.775 154.84 32.8941 155.928 31.8837L156.001 31.8163Z" fill="#231F20"/>
<path d="M195.58 32.5009C192.642 35.1367 186.128 32.9415 179.787 27.5832C178.163 26.2126 176.636 24.7297 175.219 23.1455C173.826 21.5908 172.542 19.9425 171.375 18.2122C166.649 11.2724 165.176 4.55295 168.138 1.90136C171.793 -1.37969 180.914 2.8062 188.499 11.2567C196.084 19.7071 199.25 29.2119 195.58 32.5009Z" fill="#7C5DFA"/>
<path fill-rule="evenodd" clip-rule="evenodd" d="M167.587 1.32698C168.658 0.417059 170.034 -0.0550747 171.438 0.00512267C176.29 0.00512267 183.19 4.21462 189.066 10.698C192.53 14.4124 195.226 18.7735 196.998 23.5311C198.471 27.8586 198.132 31.2419 196.108 33.0516C195.033 33.9805 193.644 34.4645 192.225 34.405C188.704 34.405 183.978 32.1232 179.252 28.1891C175.984 25.4032 173.107 22.1903 170.698 18.6371C165.633 11.1623 164.381 4.19888 167.587 1.32698ZM188.475 11.2645C182.647 4.77326 175.904 0.791944 171.438 0.791944C170.239 0.739578 169.062 1.13504 168.138 1.90136C165.177 4.55295 166.65 11.2724 171.375 18.2122C172.537 19.9447 173.816 21.5956 175.203 23.1534C176.62 24.7376 178.147 26.2205 179.772 27.5911C184.317 31.415 188.909 33.626 192.24 33.626C193.449 33.6829 194.636 33.2842 195.564 32.5087C199.251 29.2198 196.068 19.715 188.475 11.2645Z" fill="#231F20"/>
<path d="M185.026 21.0369L179.788 27.5832C178.163 26.2126 176.636 24.7298 175.219 23.1456C173.827 21.5908 172.542 19.9425 171.375 18.2122L178.953 13.5621L185.026 21.0369Z" fill="white"/>
<ellipse cx="181.974" cy="17.327" rx="2.24386" ry="4.81741" transform="rotate(-39.4 181.974 17.327)" fill="#231F20"/>
<path fill-rule="evenodd" clip-rule="evenodd" d="M179.922 18.9833C181.316 20.6828 182.986 21.6821 184.222 21.6821C184.594 21.6879 184.958 21.5688 185.254 21.3437C186.396 20.3996 185.837 17.8975 183.978 15.6393C183.229 14.6671 182.281 13.8651 181.198 13.2867C180.142 12.8146 179.244 12.8067 178.654 13.2867C178.063 13.7666 177.897 14.6558 178.189 15.7888C178.537 16.9626 179.128 18.0506 179.922 18.9833ZM179.15 13.8925C179.315 13.7694 179.519 13.7082 179.725 13.7194C180.11 13.7435 180.485 13.8481 180.827 14.0263C181.819 14.5426 182.691 15.261 183.387 16.135C185.041 18.1492 185.443 20.1714 184.766 20.73C184.088 21.2887 182.182 20.5018 180.528 18.4876C179.804 17.6443 179.267 16.6575 178.953 15.5921C178.748 14.7895 178.819 14.1679 179.15 13.8925Z" fill="#231F20"/>
<path d="M178.582 48.6386C178.513 48.6391 178.445 48.62 178.386 48.5835C178.294 48.5325 178.228 48.4468 178.201 48.346C178.175 48.2451 178.19 48.1378 178.244 48.0485C178.733 47.2479 179.338 46.5241 180.04 45.9004C180.144 45.7906 180.302 45.75 180.446 45.7961C180.59 45.8421 180.695 45.9667 180.716 46.1165C180.737 46.2662 180.67 46.4147 180.544 46.4984C179.932 47.0739 179.402 47.7304 178.968 48.4497C178.887 48.5819 178.737 48.6555 178.582 48.6386Z" fill="#231F20"/>
<path d="M176.164 47.8046H176.101C175.999 47.7837 175.909 47.7231 175.851 47.636C175.794 47.549 175.773 47.4426 175.794 47.3403C176.079 46.2174 176.744 45.2276 177.677 44.5392C177.851 44.4089 178.097 44.4441 178.228 44.6179C178.358 44.7917 178.323 45.0383 178.149 45.1687C177.378 45.7433 176.823 46.5611 176.574 47.4898C176.532 47.6802 176.359 47.8129 176.164 47.8046Z" fill="#231F20"/>
<path d="M181.741 48.3632C181.662 48.3638 181.584 48.339 181.52 48.2924C181.434 48.2322 181.376 48.1401 181.358 48.0367C181.34 47.9332 181.365 47.827 181.426 47.7416L181.961 46.9548C182.092 46.7833 182.333 46.742 182.513 46.8604C182.688 46.9883 182.73 47.2322 182.607 47.4111L182.064 48.198C181.991 48.3044 181.87 48.3667 181.741 48.3632Z" fill="#231F20"/>
<path d="M156.883 46.6715C156.797 46.6721 156.714 46.6444 156.646 46.5928C153.165 43.9491 151.007 40.7389 150.581 37.5601V37.4736C150.53 37.3021 150.601 37.1178 150.755 37.0251C150.843 36.9674 150.951 36.9482 151.053 36.972C151.156 36.9958 151.244 37.0604 151.298 37.151C151.345 37.2469 151.372 37.3513 151.377 37.4578C151.779 40.432 153.819 43.4534 157.142 45.9634C157.279 46.0658 157.334 46.2448 157.279 46.4063C157.223 46.5678 157.069 46.675 156.898 46.6715H156.883Z" fill="white"/>
<path d="M154.937 34.1138C154.828 34.1124 154.724 34.0636 154.653 33.9801C154.579 33.9076 154.538 33.8083 154.538 33.7047C154.538 33.6011 154.579 33.5018 154.653 33.4293L158.891 29.4952C158.962 29.4191 159.062 29.376 159.167 29.376C159.271 29.376 159.371 29.4191 159.442 29.4952C159.516 29.5677 159.558 29.667 159.558 29.7706C159.558 29.8742 159.516 29.9735 159.442 30.046L155.205 33.9801C155.138 34.0596 155.041 34.108 154.937 34.1138Z" fill="white"/>
<path d="M155.52 35.058C155.41 35.0552 155.306 35.0101 155.229 34.9321C155.077 34.7765 155.077 34.5291 155.229 34.3735L159.466 30.4394C159.619 30.2894 159.864 30.2894 160.017 30.4394C160.092 30.5133 160.134 30.6138 160.134 30.7187C160.134 30.8236 160.092 30.9242 160.017 30.998L155.788 34.9321C155.717 35.0054 155.622 35.0502 155.52 35.058Z" fill="white"/>
<path d="M156.189 36.1438C156.081 36.1465 155.977 36.1003 155.906 36.018C155.832 35.9454 155.79 35.8462 155.79 35.7426C155.79 35.6389 155.832 35.5397 155.906 35.4672L160.143 31.5331C160.215 31.457 160.315 31.4138 160.419 31.4138C160.524 31.4138 160.623 31.457 160.695 31.5331C160.769 31.6056 160.811 31.7048 160.811 31.8085C160.811 31.9121 160.769 32.0113 160.695 32.0838L156.457 36.018C156.389 36.0953 156.292 36.1409 156.189 36.1438Z" fill="white"/>
<path d="M86.0879 96.8314L84.1108 140.437C84.1108 140.437 111.088 140.76 126.605 134.284C127.877 130.128 129.413 126.057 131.205 122.096C133.481 117.501 143.256 110.727 140.184 93.1334C140.184 93.1334 163.215 107.69 169.705 101.002C176.196 94.3136 179.441 63.0768 179.441 63.0768L165.956 58.7492L159.828 78.0106C159.828 78.0106 120.965 59.2292 111.907 56.853C108.544 55.9718 98.0917 61.5267 86.1115 69.214" fill="#7C5DFA"/>
<path d="M111.073 69.93C111.073 69.93 117.319 89.3172 118.39 97.5238C119.461 105.73 119.619 119.295 119.619 119.295C119.619 119.295 129.504 89.0497 128.283 70.3706L111.073 69.93Z" fill="#231F20"/>
<path fill-rule="evenodd" clip-rule="evenodd" d="M119.571 119.649H119.619C119.773 119.653 119.912 119.553 119.957 119.405C120.052 119.13 129.842 88.8766 128.621 70.347C128.613 70.1663 128.464 70.0242 128.283 70.0244L111.08 69.5838C110.968 69.584 110.863 69.6371 110.796 69.727C110.73 69.8169 110.709 69.933 110.742 70.0401C110.742 70.0413 110.743 70.0433 110.744 70.046C110.881 70.4749 116.994 89.5405 118.043 97.5789C119.099 105.667 119.272 119.177 119.272 119.311C119.274 119.482 119.402 119.626 119.571 119.649ZM118.736 97.4766C117.768 90.0411 112.506 73.2976 111.553 70.2919L127.952 70.7247C128.866 86.3273 122.076 110.066 119.926 117.147C119.831 112.985 119.524 103.661 118.736 97.4766Z" fill="#231F20"/>
<path d="M79.6059 163.585H154.047L126.629 134.284L84.1349 140.437C84.1349 140.437 79.0467 151.94 79.5271 160.013C79.5586 160.965 79.5823 162.185 79.6059 163.585Z" fill="#231F20"/>
<path fill-rule="evenodd" clip-rule="evenodd" d="M79.6055 163.979H154.047H154.055C154.212 163.98 154.354 163.888 154.418 163.744C154.481 163.6 154.453 163.433 154.346 163.318L126.928 134.017C126.839 133.922 126.71 133.875 126.581 133.891L84.0479 140.044C83.9169 140.067 83.8053 140.152 83.7486 140.272C83.5359 140.752 78.6288 151.956 79.1093 160.037C79.1644 161.005 79.2117 162.271 79.2117 163.593C79.2116 163.697 79.2534 163.796 79.3275 163.869C79.4016 163.941 79.5018 163.981 79.6055 163.979ZM153.133 163.192H80.0072C80.0072 162.101 79.9607 161.064 79.9227 160.213C79.9192 160.137 79.9159 160.063 79.9127 159.99C79.4716 152.68 83.7328 142.365 84.4023 140.791L126.479 134.701L153.133 163.192Z" fill="#231F20"/>
<path d="M126.14 59.5046L128.275 70.3706C128.275 70.3706 128.33 76.6652 121.351 76.0593C117.175 75.6677 113.399 73.4158 111.072 69.93L108.245 50.9518C108.488 47.4962 108.206 44.0238 107.41 40.6523C115.436 38.9921 120.619 31.7298 120.619 31.7298C120.619 31.7298 124.171 35.3491 125.62 36.4507C126.786 37.2487 127.845 38.1927 128.771 39.2597C130.291 41.1402 130.74 43.7681 131.134 46.0893C131.629 48.8442 131.875 51.6383 131.866 54.4374C131.74 59.7485 126.14 59.5046 126.14 59.5046Z" fill="white"/>
<path fill-rule="evenodd" clip-rule="evenodd" d="M121.32 76.4606H122.257C123.854 76.5416 125.423 76.0128 126.644 74.9814C127.866 73.7499 128.556 72.0888 128.566 70.3548L126.51 59.9137C128.007 59.8646 129.443 59.3098 130.583 58.3401C131.628 57.3275 132.2 55.9229 132.158 54.4689C132.167 51.6486 131.919 48.8333 131.417 46.0578C131.039 43.7839 130.559 41.0457 128.984 39.0629C128.058 37.9795 127 37.0172 125.833 36.1989C124.771 35.4035 122.535 33.1786 121.462 32.1111C121.102 31.753 120.873 31.5252 120.863 31.5252C120.791 31.4457 120.686 31.4049 120.579 31.415C120.473 31.4238 120.375 31.4784 120.312 31.5645C120.264 31.6353 115.121 38.7718 107.331 40.3455C107.237 40.3656 107.155 40.4222 107.103 40.5028C107.048 40.5807 107.031 40.6786 107.055 40.7703C107.791 43.823 108.073 46.9674 107.89 50.1021C107.859 50.4186 107.859 50.7375 107.89 51.0541C107.898 51.1485 110.718 70.0322 110.718 70.0322C110.727 70.079 110.743 70.1242 110.765 70.166C113.143 73.7579 117.027 76.0743 121.32 76.4606ZM121.383 75.7052C117.351 75.3079 113.702 73.147 111.419 69.8041C108.623 51.0856 108.654 50.8889 108.654 50.8889C108.633 50.627 108.633 50.3639 108.654 50.1021C108.836 47.0246 108.571 43.9371 107.867 40.9356C114.837 39.3619 119.555 33.7362 120.682 32.2805C121.54 33.1775 124.179 35.8055 125.408 36.7261C126.535 37.5106 127.559 38.4331 128.456 39.4721C129.907 41.2426 130.329 43.7164 130.705 45.9241C130.717 45.9926 130.728 46.0607 130.74 46.1286C131.235 48.8625 131.48 51.6356 131.473 54.4138C131.515 55.6645 131.039 56.8772 130.157 57.7657C129.028 58.683 127.611 59.1708 126.156 59.1426C126.044 59.1337 125.935 59.1809 125.864 59.2685C125.796 59.3553 125.768 59.4666 125.786 59.5754L127.912 70.3706C127.875 71.8822 127.267 73.324 126.211 74.407C125.085 75.4456 123.462 75.8783 121.383 75.7052Z" fill="#231F20"/>
<path d="M127.094 64.855C127.094 64.855 122.714 65.8857 119.312 63.4859C115.909 61.0861 115.767 58.0411 115.767 58.0411C115.767 58.0411 121.155 60.3308 126.141 59.5046L127.094 64.855Z" fill="#231F20"/>
<path fill-rule="evenodd" clip-rule="evenodd" d="M119.114 63.7692C120.794 64.8932 122.78 65.4729 124.801 65.4294C125.608 65.4406 126.414 65.3614 127.204 65.1933C127.387 65.1539 127.505 64.9761 127.471 64.792L126.51 59.4416C126.478 59.2559 126.303 59.1299 126.117 59.1584C121.691 59.8953 116.853 58.0651 116.048 57.7607C115.976 57.7335 115.937 57.7185 115.932 57.7185C115.823 57.6712 115.697 57.6862 115.601 57.7578C115.5 57.8219 115.442 57.9371 115.452 58.0568C115.452 58.2299 115.609 61.2985 119.114 63.7692ZM119.54 63.2027C117.906 62.1235 116.73 60.4781 116.239 58.584C117.704 59.1348 121.832 60.4566 125.888 59.898L126.723 64.5796C125.676 64.7763 122.257 65.1225 119.54 63.2027Z" fill="#231F20"/>
<path d="M120.328 40.9749C120.328 40.9749 124.825 45.5385 124.164 46.6007C123.502 47.6629 121.06 47.5134 121.06 47.5134" fill="white"/>
<path d="M121.438 47.8675H121.036C120.944 47.8615 120.859 47.819 120.798 47.7496C120.737 47.6802 120.707 47.5896 120.714 47.4977C120.726 47.3052 120.891 47.1582 121.084 47.1672C121.706 47.1672 123.447 47.1672 123.872 46.4276C124.14 45.987 122.375 43.5557 120.083 41.2267C119.949 41.0898 119.95 40.8697 120.087 40.735C120.224 40.6003 120.445 40.602 120.58 40.7389C121.99 42.1709 125.187 45.6251 124.463 46.7974C123.864 47.7495 122.218 47.8675 121.438 47.8675Z" fill="#231F20"/>
<ellipse cx="126.29" cy="42.3374" rx="0.614338" ry="1.14882" transform="rotate(-13.01 126.29 42.3374)" fill="#231F20"/>
<ellipse cx="116.255" cy="43.3561" rx="0.614338" ry="1.14882" transform="rotate(-13.01 116.255 43.3561)" fill="#231F20"/>
<path d="M110.82 44.6887C109.726 42.9184 107.166 42.6745 105.378 43.3905C104.164 43.8241 103.338 44.9523 103.29 46.2388C103.277 47.0111 103.416 47.7785 103.7 48.497C104.176 49.8438 104.891 51.0939 105.811 52.1872C106.24 52.759 106.806 53.2137 107.457 53.509C108.296 53.805 109.232 53.5622 109.82 52.8953" fill="white"/>
<path d="M108.198 54.0126C107.901 54.0123 107.607 53.9562 107.331 53.8473C106.625 53.5271 106.008 53.038 105.535 52.4232C104.59 51.2958 103.854 50.0088 103.361 48.6228C103.061 47.8563 102.914 47.0383 102.928 46.2152C102.99 44.7942 103.905 43.5513 105.244 43.0679C107.213 42.2811 109.97 42.5958 111.128 44.5078C111.21 44.6752 111.152 44.8778 110.992 44.9756C110.833 45.0734 110.626 45.0344 110.513 44.8854C109.529 43.3118 107.205 43.0521 105.512 43.7288C104.431 44.1116 103.69 45.1101 103.637 46.2545C103.626 46.981 103.758 47.7025 104.023 48.3789C104.486 49.6852 105.179 50.8978 106.071 51.959C106.464 52.4814 106.981 52.8979 107.575 53.1707C108.287 53.4207 109.08 53.2118 109.576 52.6435C109.661 52.5313 109.803 52.4784 109.941 52.5078C110.078 52.5372 110.187 52.6436 110.218 52.7806C110.25 52.9177 110.199 53.0605 110.088 53.1471C109.599 53.676 108.918 53.9876 108.198 54.0126Z" fill="#231F20"/>
<path d="M124.738 48.9297L119.469 49.4411C119.469 49.4411 120.564 57.5769 122.934 57.3565C125.305 57.1362 125.313 51.2587 124.738 48.9297Z" fill="white"/>
<path fill-rule="evenodd" clip-rule="evenodd" d="M119.123 49.4883C119.304 50.881 120.351 57.7106 122.832 57.7106L122.966 57.7028C123.543 57.6356 124.058 57.3117 124.368 56.8215C125.676 54.9882 125.526 50.6528 125.077 48.8431C125.035 48.677 124.878 48.5666 124.707 48.5835L119.43 49.0949C119.335 49.1016 119.248 49.1507 119.193 49.2287C119.131 49.2997 119.105 49.3955 119.123 49.4883ZM122.832 57.0104C121.438 57.0104 120.304 52.73 119.863 49.7559L124.471 49.3388C124.88 51.3216 124.833 54.9646 123.801 56.4202C123.605 56.741 123.276 56.9574 122.903 57.0104H122.832Z" fill="#231F20"/>
<path d="M137.924 112.017C137.795 112.017 137.676 111.947 137.614 111.834C137.552 111.721 137.556 111.583 137.624 111.474C137.68 111.372 143.469 101.647 137.932 81.3939C137.886 81.2036 137.996 81.0103 138.184 80.9533C138.276 80.9269 138.374 80.9388 138.457 80.9862C138.54 81.0336 138.601 81.1126 138.625 81.2051C144.257 101.788 138.483 111.451 138.231 111.891C138.157 111.983 138.041 112.03 137.924 112.017Z" fill="#231F20"/>
<path d="M30.8027 83.8724L115.838 145.158L200.873 83.8724V184.413H30.8027V83.8724Z" fill="white"/>
<path fill-rule="evenodd" clip-rule="evenodd" d="M30.4087 184.413C30.4087 184.63 30.5851 184.806 30.8026 184.806H200.873C201.089 184.802 201.263 184.628 201.267 184.413V83.8725C201.266 83.7243 201.18 83.5897 201.046 83.5262C200.921 83.4479 200.762 83.4479 200.637 83.5262L115.838 144.639L31.031 83.5262C30.9057 83.4479 30.7467 83.4479 30.6214 83.5262C30.4892 83.5905 30.4062 83.7256 30.4087 83.8725V184.413ZM200.519 184.019H31.1728V84.6435L115.602 145.473C115.74 145.574 115.928 145.574 116.066 145.473L200.519 84.6435V184.019Z" fill="#231F20"/>
<path d="M30.8025 184.806C30.6582 184.806 30.5252 184.728 30.4559 184.601C30.3542 184.412 30.4202 184.176 30.6056 184.066L108.41 139.603C108.599 139.497 108.839 139.564 108.946 139.753C109 139.842 109.015 139.949 108.988 140.05C108.962 140.151 108.895 140.237 108.804 140.288L30.9915 184.751C30.9341 184.785 30.8691 184.804 30.8025 184.806Z" fill="#231F20"/>
<path d="M200.873 184.806C200.804 184.804 200.736 184.785 200.676 184.751L122.872 140.288C122.683 140.181 122.616 139.942 122.722 139.753C122.831 139.567 123.068 139.501 123.257 139.603L201.062 184.066C201.251 184.173 201.318 184.412 201.212 184.601C201.145 184.727 201.015 184.805 200.873 184.806Z" fill="#231F20"/>
<path d="M71.3433 138.297C71.3433 138.297 74.7854 147.251 75.5966 147.739C76.4079 148.227 85.9937 152.145 85.3084 153.978C84.6232 155.812 80.3068 153.577 80.3068 153.577C80.3068 153.577 86.5214 160.761 84.8831 162.027C83.2448 163.294 77.7312 165.867 75.5179 164.821C73.3046 163.774 62.2695 150.115 59.9302 144.182" fill="white"/>
<path d="M76.8568 165.482C76.3432 165.497 75.8325 165.4 75.3602 165.198C72.9973 164.073 61.8913 150.249 59.5677 144.348C59.5171 144.215 59.5408 144.066 59.63 143.956C59.7193 143.847 59.8604 143.793 60.0002 143.815C60.1401 143.837 60.2575 143.932 60.3081 144.064C62.6711 150.115 73.777 163.577 75.691 164.522C77.605 165.466 82.9847 163.074 84.6546 161.776C84.7271 161.708 84.7697 161.615 84.7727 161.516C84.9224 159.942 81.3858 155.481 80.0468 153.892C79.9231 153.749 79.9186 153.538 80.0361 153.39C80.1535 153.242 80.3597 153.198 80.5272 153.286C81.3149 153.695 83.5676 154.671 84.5758 154.285C84.7628 154.222 84.9108 154.077 84.9775 153.892C85.1665 153.38 83.922 152.098 76.904 148.848C76.0534 148.455 75.6044 148.242 75.4232 148.124C74.5726 147.581 71.8315 140.594 71.0124 138.47C70.974 138.372 70.9766 138.263 71.0196 138.167C71.0625 138.07 71.1422 137.996 71.2408 137.959C71.443 137.884 71.6677 137.986 71.7449 138.187C73.3832 142.443 75.3681 147.078 75.8564 147.471C75.9903 147.558 76.5653 147.825 77.2348 148.132C82.8902 150.744 86.2771 152.672 85.7179 154.167C85.5712 154.565 85.2574 154.878 84.8594 155.025C83.7973 155.241 82.6938 155.115 81.7087 154.663C83.2289 156.559 85.7415 159.966 85.584 161.587C85.5582 161.895 85.4074 162.179 85.1665 162.374C83.8669 163.357 79.6766 165.482 76.8568 165.482Z" fill="#231F20"/>
<path d="M86.1118 69.2454C65.8533 82.2437 41.2154 101.371 39.136 105.84C35.8121 112.922 60.6705 148.533 60.6705 148.533L74.1315 140.004L61.8284 113.307L86.0882 96.8235" fill="#7C5DFA"/>
<path d="M70.5553 107.8C70.4368 107.803 70.3244 107.747 70.256 107.65C70.1455 107.486 70.1836 107.264 70.3426 107.147L97.5798 88.0977C97.6574 88.0404 97.7551 88.0173 97.8503 88.0336C97.9454 88.0499 98.0298 88.1043 98.0839 88.1842C98.1383 88.2635 98.1589 88.3611 98.1411 88.4556C98.1234 88.55 98.0688 88.6336 97.9893 88.6878L70.7601 107.737C70.7007 107.78 70.6287 107.802 70.5553 107.8Z" fill="#231F20"/>
<path d="M188.901 161.784L221.912 141.602L193.942 153.239L188.901 161.784Z" fill="#231F20"/>
<path fill-rule="evenodd" clip-rule="evenodd" d="M188.625 162.059C188.698 162.134 188.797 162.176 188.901 162.177C188.975 162.165 189.046 162.135 189.106 162.09L222.14 141.94C222.317 141.834 222.382 141.609 222.288 141.425C222.195 141.241 221.976 141.16 221.786 141.24L193.784 152.877C193.707 152.91 193.643 152.968 193.603 153.042L188.562 161.579C188.471 161.734 188.497 161.932 188.625 162.059ZM190.043 160.603L194.21 153.522L217.367 143.899L190.043 160.603Z" fill="#231F20"/>
<path d="M193.942 153.239L204.733 158.754L221.912 141.602L193.942 153.239Z" fill="white"/>
<path fill-rule="evenodd" clip-rule="evenodd" d="M204.567 159.069C204.618 159.097 204.675 159.11 204.733 159.108C204.83 159.114 204.925 159.077 204.993 159.006L222.171 141.853C222.296 141.736 222.316 141.546 222.219 141.405C222.124 141.264 221.943 141.209 221.786 141.271L193.8 152.908C193.672 152.966 193.587 153.091 193.58 153.231C193.572 153.371 193.65 153.501 193.776 153.561L204.567 159.069ZM204.662 158.314L194.793 153.278L220.368 142.632L204.662 158.314Z" fill="#231F20"/>
<path d="M221.911 141.602L186.372 150.084L178.291 145.465L221.911 141.602Z" fill="white"/>
<path fill-rule="evenodd" clip-rule="evenodd" d="M186.168 150.39C186.22 150.421 186.28 150.438 186.341 150.438L186.428 150.43L221.967 141.956C222.148 141.909 222.265 141.732 222.234 141.546C222.202 141.362 222.035 141.233 221.848 141.247L178.228 145.111C178.074 145.127 177.947 145.24 177.914 145.392C177.88 145.543 177.946 145.699 178.078 145.78L186.168 150.39ZM186.396 149.69L179.433 145.717L217.059 142.42L186.396 149.69Z" fill="#231F20"/>
<path d="M186.373 150.084L188.901 161.784L193.942 153.239L221.912 141.602L186.373 150.084Z" fill="white"/>
<path fill-rule="evenodd" clip-rule="evenodd" d="M188.845 162.145H188.901C189.039 162.157 189.172 162.086 189.239 161.964L194.217 153.53L222.053 141.94C222.24 141.879 222.342 141.678 222.281 141.491C222.221 141.305 222.02 141.202 221.832 141.263L186.293 149.737C186.201 149.758 186.121 149.814 186.071 149.894C186.021 149.974 186.004 150.07 186.026 150.162L188.546 161.87C188.58 162.014 188.699 162.124 188.845 162.145ZM189.058 160.8L186.798 150.343L217.634 142.986L193.8 152.9C193.729 152.932 193.669 152.984 193.627 153.05L189.058 160.8Z" fill="#231F20"/>
<path d="M181.615 163.412C181.442 163.408 181.292 163.292 181.245 163.126C181.198 162.96 181.265 162.782 181.41 162.688L182.726 161.846C182.908 161.727 183.153 161.778 183.273 161.961C183.393 162.143 183.342 162.388 183.159 162.507L181.828 163.357C181.763 163.394 181.69 163.413 181.615 163.412Z" fill="#D1D3D4"/>
<path fill-rule="evenodd" clip-rule="evenodd" d="M22.4236 139.771C22.4864 139.917 22.6328 140.01 22.792 140.004C22.9131 140.007 23.0288 139.955 23.1071 139.863C23.816 139.107 24.5485 138.376 25.3362 137.683C25.4107 137.609 25.4527 137.509 25.4527 137.404C25.4527 137.299 25.4107 137.198 25.3362 137.125C25.2636 137.051 25.1642 137.009 25.0605 137.009C24.9568 137.009 24.8574 137.051 24.7848 137.125C23.9972 137.833 23.2331 138.557 22.5085 139.343C22.3945 139.455 22.3608 139.625 22.4236 139.771ZM18.8538 144.883C18.7497 144.886 18.6483 144.849 18.5702 144.78C18.4847 144.722 18.4265 144.631 18.4087 144.529C18.3909 144.427 18.4151 144.322 18.4757 144.237C19.0743 143.372 19.7202 142.514 20.3818 141.696C20.5194 141.53 20.7654 141.505 20.9332 141.641C21.1021 141.776 21.1302 142.022 20.9962 142.192C20.3424 142.978 19.7123 143.836 19.1216 144.686C19.0599 144.793 18.9524 144.865 18.8301 144.883H18.8538ZM15.4196 150.288C15.4929 150.315 15.573 150.318 15.648 150.296L15.6244 150.288C15.7536 150.286 15.8738 150.221 15.9473 150.115C16.4042 149.187 16.9004 148.266 17.436 147.377C17.5443 147.187 17.4813 146.946 17.2942 146.834C17.2048 146.78 17.0973 146.765 16.9964 146.792C16.8955 146.818 16.8097 146.885 16.7586 146.976C16.2151 147.888 15.7031 148.825 15.2384 149.761C15.1923 149.855 15.1854 149.963 15.2194 150.062C15.2534 150.161 15.3254 150.242 15.4196 150.288ZM13.285 156.118C13.246 156.126 13.2059 156.126 13.1669 156.118C13.0663 156.088 12.9821 156.018 12.9333 155.925C12.8845 155.832 12.875 155.723 12.907 155.623C13.2142 154.631 13.5765 153.624 13.9782 152.633C14.0733 152.454 14.2889 152.376 14.4764 152.454C14.6639 152.531 14.7619 152.738 14.7028 152.932C14.3169 153.9 13.9624 154.883 13.6552 155.859C13.603 156.018 13.4524 156.123 13.285 156.118ZM11.8594 162.248H11.9145C12.1173 162.244 12.2843 162.088 12.3005 161.886C12.4344 160.871 12.6234 159.84 12.8518 158.825C12.8753 158.723 12.8569 158.615 12.8007 158.527C12.7445 158.438 12.6551 158.376 12.5525 158.353C12.34 158.309 12.1307 158.441 12.0799 158.652C11.8436 159.714 11.6625 160.769 11.5207 161.799C11.4925 162.016 11.6431 162.215 11.8594 162.248ZM176.18 166.63C176.003 166.629 175.85 166.509 175.804 166.339C175.758 166.169 175.831 165.989 175.983 165.899C176.999 165.316 177.913 164.789 178.701 164.325C178.79 164.27 178.898 164.253 179 164.279C179.102 164.304 179.19 164.369 179.244 164.459C179.354 164.646 179.294 164.887 179.11 165.002C178.323 165.474 177.401 166.009 176.377 166.575C176.324 166.606 176.265 166.625 176.204 166.63H176.18ZM11.245 168.149C11.2575 168.357 11.4302 168.519 11.6388 168.519H11.6625C11.767 168.513 11.8648 168.465 11.9342 168.387C12.0037 168.309 12.0391 168.206 12.0327 168.102C11.9854 167.504 11.9854 166.89 11.9854 166.284V165.002C11.9897 164.897 11.9522 164.795 11.8813 164.719C11.8104 164.642 11.7118 164.597 11.6073 164.592C11.5023 164.586 11.3992 164.623 11.3219 164.694C11.2445 164.765 11.1997 164.865 11.1978 164.97V166.284C11.1978 166.596 11.2096 166.91 11.2215 167.222C11.2333 167.533 11.245 167.843 11.245 168.149ZM170.667 169.675C170.522 169.678 170.388 169.599 170.32 169.471C170.22 169.279 170.289 169.043 170.477 168.936C171.366 168.463 172.208 168.004 173.006 167.57L173.242 167.441C173.366 167.353 173.528 167.344 173.661 167.417C173.793 167.491 173.872 167.633 173.863 167.784C173.855 167.935 173.76 168.068 173.62 168.125C172.754 168.605 171.832 169.109 170.848 169.636C170.799 169.661 170.745 169.674 170.69 169.675H170.667ZM164.72 172.358C164.784 172.495 164.923 172.581 165.074 172.579C165.135 172.578 165.195 172.562 165.247 172.532C166.224 172.044 167.161 171.564 168.059 171.099C168.253 171 168.329 170.762 168.229 170.568C168.129 170.375 167.891 170.299 167.697 170.399C166.799 170.871 165.862 171.343 164.893 171.831C164.7 171.929 164.622 172.165 164.72 172.358ZM12.6943 174.68C12.5171 174.679 12.3623 174.559 12.3162 174.388C12.0278 173.366 11.7964 172.328 11.6231 171.28C11.5883 171.063 11.7364 170.859 11.9539 170.824C12.1714 170.789 12.3759 170.937 12.4107 171.155C12.5681 172.184 12.7837 173.203 13.0566 174.207C13.0859 174.308 13.0741 174.415 13.0239 174.507C12.9736 174.598 12.8891 174.666 12.7888 174.695L12.6943 174.68ZM159.08 175.112C159.143 175.25 159.283 175.337 159.435 175.333C159.491 175.334 159.548 175.323 159.6 175.301L162.443 173.932C162.639 173.836 162.72 173.6 162.625 173.405C162.529 173.209 162.293 173.128 162.097 173.224C161.183 173.672 160.238 174.129 159.261 174.585C159.167 174.631 159.095 174.712 159.061 174.811C159.027 174.91 159.034 175.018 159.08 175.112ZM153.708 177.961C153.554 177.959 153.414 177.871 153.346 177.732C153.302 177.637 153.298 177.527 153.337 177.429C153.376 177.331 153.453 177.253 153.551 177.213C153.762 177.118 153.972 177.023 154.181 176.929L154.182 176.929C154.939 176.588 155.682 176.254 156.41 175.915C156.608 175.824 156.842 175.91 156.934 176.108C157.025 176.305 156.939 176.54 156.741 176.631C155.803 177.064 154.85 177.496 153.866 177.929C153.816 177.952 153.763 177.962 153.708 177.961ZM15.073 180.51C14.9282 180.512 14.7944 180.433 14.7265 180.305C14.2118 179.375 13.7516 178.417 13.3481 177.433C13.2946 177.303 13.315 177.153 13.4016 177.042C13.4882 176.93 13.6278 176.873 13.7678 176.892C13.9079 176.911 14.0271 177.004 14.0806 177.134C14.4677 178.093 14.9149 179.026 15.4196 179.928C15.52 180.119 15.4503 180.356 15.2621 180.463C15.2037 180.493 15.1389 180.509 15.073 180.51ZM141.706 182.672C141.798 182.781 141.942 182.833 142.082 182.807V182.815C142.133 182.815 142.184 182.807 142.232 182.792L145.162 181.596C145.363 181.509 145.457 181.278 145.375 181.076C145.291 180.877 145.063 180.782 144.863 180.864L141.941 182.021C141.8 182.046 141.684 182.144 141.635 182.279C141.587 182.413 141.614 182.563 141.706 182.672ZM18.4127 185.483C18.4895 185.567 18.5979 185.615 18.712 185.616V185.624C18.8202 185.629 18.9256 185.589 19.0034 185.514C19.1545 185.358 19.1545 185.111 19.0034 184.955C18.3115 184.188 17.6646 183.382 17.0658 182.54C16.9899 182.412 16.8483 182.338 16.6998 182.348C16.5513 182.358 16.4213 182.451 16.3637 182.588C16.3062 182.725 16.331 182.883 16.4278 182.996C17.0423 183.862 17.705 184.692 18.4127 185.483ZM130.252 187.111C130.034 187.146 129.83 186.998 129.795 186.781C129.76 186.564 129.908 186.359 130.126 186.324C131.126 185.986 132.119 185.648 133.095 185.302C133.302 185.233 133.525 185.341 133.599 185.546C133.635 185.643 133.629 185.75 133.585 185.843C133.541 185.936 133.461 186.007 133.363 186.041C132.379 186.387 131.386 186.734 130.378 187.072L130.252 187.111ZM23.3513 189.842C23.266 189.842 23.1829 189.815 23.115 189.763C22.2564 189.126 21.4294 188.449 20.6575 187.749C20.5829 187.675 20.541 187.574 20.541 187.469C20.541 187.364 20.5829 187.264 20.6575 187.19C20.7301 187.116 20.8295 187.074 20.9332 187.074C21.0369 187.074 21.1363 187.116 21.2089 187.19C21.9763 187.885 22.7781 188.542 23.6112 189.157C23.7852 189.287 23.8205 189.534 23.69 189.708C23.605 189.804 23.4791 189.854 23.3513 189.842ZM117.862 190.573C117.908 190.739 118.057 190.854 118.228 190.857H118.224C118.267 190.862 118.31 190.856 118.35 190.841C119.367 190.558 120.375 190.259 121.375 189.96C121.477 189.932 121.562 189.865 121.613 189.773C121.664 189.681 121.674 189.572 121.643 189.472C121.579 189.266 121.361 189.151 121.154 189.212L118.138 190.086C117.929 190.147 117.806 190.363 117.862 190.573ZM28.4868 193.099C28.5428 193.128 28.6048 193.144 28.668 193.146V193.162C28.8855 193.212 29.1023 193.076 29.1524 192.859C29.2024 192.642 29.0666 192.425 28.8491 192.375C27.9118 191.895 26.9981 191.384 26.1396 190.857C26.0514 190.799 25.9435 190.78 25.8409 190.804C25.7383 190.827 25.6498 190.892 25.5961 190.982C25.5406 191.071 25.5226 191.178 25.5463 191.28C25.5699 191.382 25.6332 191.47 25.7221 191.525C26.6043 192.084 27.5337 192.611 28.4868 193.099ZM106.008 193.988C105.867 194.004 105.729 193.943 105.645 193.829C105.561 193.715 105.545 193.565 105.602 193.436C105.659 193.306 105.781 193.217 105.921 193.201C106.945 192.965 107.961 192.729 108.977 192.477C109.188 192.428 109.399 192.558 109.45 192.769C109.476 192.871 109.46 192.979 109.405 193.07C109.35 193.16 109.261 193.224 109.158 193.249C108.142 193.492 107.126 193.736 106.094 193.965L106.008 193.988ZM34.473 195.609C34.4313 195.617 34.3886 195.617 34.347 195.609C33.3388 195.255 32.3384 194.869 31.3854 194.468C31.289 194.427 31.2133 194.348 31.1748 194.251C31.1364 194.154 31.1384 194.045 31.1806 193.949C31.267 193.753 31.4946 193.662 31.6926 193.744C32.6299 194.138 33.6144 194.531 34.6069 194.869C34.8244 194.906 34.9707 195.112 34.9338 195.33C34.8968 195.547 34.6905 195.693 34.473 195.656V195.609ZM93.3109 196.144C93.342 196.332 93.506 196.469 93.6968 196.467H93.7677L96.8711 195.908C97.0837 195.868 97.2244 195.664 97.1861 195.452C97.169 195.349 97.1106 195.257 97.0245 195.197C96.9384 195.138 96.8318 195.116 96.7293 195.137L93.6338 195.688C93.4204 195.728 93.2773 195.93 93.3109 196.144ZM40.53 197.371H40.4355C39.3879 197.128 38.3561 196.86 37.3715 196.585C37.1656 196.52 37.0474 196.305 37.1037 196.097C37.1646 195.888 37.3833 195.768 37.5921 195.829C38.5688 196.105 39.5849 196.372 40.6167 196.616C40.719 196.638 40.8078 196.701 40.8627 196.79C40.9177 196.879 40.934 196.987 40.9081 197.088C40.8547 197.259 40.6929 197.372 40.5143 197.364L40.53 197.371ZM87.0884 197.112C87.1192 197.306 87.2858 197.449 87.4822 197.45L87.5058 197.442L90.6565 196.978C90.7601 196.961 90.8525 196.903 90.9131 196.817C90.9738 196.731 90.9976 196.625 90.9794 196.522C90.964 196.419 90.9076 196.327 90.8231 196.266C90.7385 196.205 90.633 196.181 90.5304 196.199L87.4271 196.663C87.3222 196.677 87.2272 196.732 87.1634 196.817C87.0997 196.901 87.0727 197.007 87.0884 197.112ZM81.2361 198.237C81.0954 198.245 80.9609 198.178 80.8832 198.061C80.8055 197.943 80.7965 197.793 80.8596 197.667C80.9226 197.541 81.0481 197.459 81.1888 197.45C82.239 197.335 83.2892 197.209 84.3395 197.072C84.557 197.044 84.7562 197.197 84.7845 197.415C84.8128 197.632 84.6594 197.831 84.4418 197.859L81.2912 198.229L81.2361 198.237ZM46.6501 198.52H46.6895C46.8825 198.511 47.0413 198.365 47.0676 198.174C47.0834 198.071 47.0574 197.965 46.9953 197.881C46.9333 197.797 46.8402 197.741 46.7368 197.726C45.6892 197.576 44.6495 197.403 43.6492 197.214C43.5085 197.187 43.3642 197.238 43.2707 197.346C43.1772 197.454 43.1487 197.604 43.1959 197.739C43.2431 197.875 43.3588 197.974 43.4995 198.001C44.5471 198.19 45.5947 198.363 46.6501 198.52ZM74.9664 198.843C74.7488 198.843 74.5725 198.667 74.5725 198.449C74.5725 198.232 74.7488 198.056 74.9664 198.056C76.0139 197.969 77.0536 197.875 78.117 197.773C78.3322 197.758 78.5216 197.913 78.5502 198.127C78.5612 198.231 78.5299 198.336 78.4633 198.417C78.3967 198.498 78.3004 198.55 78.1957 198.56C77.1455 198.659 76.0953 198.754 75.0451 198.843H74.9664ZM49.8165 198.914C50.8483 199.024 51.8959 199.118 52.9671 199.197H53.0538C53.2713 199.197 53.4476 199.021 53.4476 198.803C53.4476 198.586 53.2713 198.41 53.0538 198.41C51.9589 198.331 50.9192 198.237 49.9032 198.135C49.799 198.119 49.6931 198.148 49.6108 198.213C49.5286 198.279 49.4776 198.376 49.4699 198.481C49.4469 198.696 49.6016 198.889 49.8165 198.914ZM68.6809 199.252C68.4737 199.252 68.3034 199.089 68.2949 198.882C68.2885 198.778 68.3239 198.675 68.3933 198.597C68.4628 198.519 68.5606 198.471 68.6651 198.465C69.7127 198.418 70.7603 198.355 71.8157 198.284C71.9207 198.276 72.0247 198.31 72.1036 198.38C72.1824 198.45 72.2292 198.549 72.2332 198.654C72.2419 198.758 72.2083 198.86 72.1401 198.939C72.0718 199.017 71.9748 199.065 71.8709 199.071C70.8233 199.142 69.7757 199.205 68.7202 199.252H68.6809ZM56.4539 199.392C57.3597 199.428 58.2883 199.464 59.229 199.464H59.2369C59.3448 199.469 59.4498 199.429 59.5284 199.355C59.6069 199.281 59.6523 199.179 59.6543 199.071C59.6543 198.967 59.6128 198.867 59.539 198.793C59.4651 198.719 59.3649 198.678 59.2605 198.678C58.1814 198.662 57.1338 198.63 56.1099 198.591C56.0054 198.587 55.9035 198.624 55.8267 198.695C55.7499 198.766 55.7044 198.864 55.7003 198.969C55.6957 199.184 55.8627 199.365 56.0784 199.378L56.4539 199.392ZM61.9858 199.071C61.99 199.287 62.1639 199.46 62.3796 199.464H62.3875L64.27 199.425L65.5381 199.386C65.644 199.384 65.7446 199.339 65.8172 199.262C65.8898 199.185 65.9283 199.082 65.9241 198.977C65.9076 198.763 65.7289 198.598 65.5145 198.599L64.2464 198.638L62.3717 198.678C62.1573 198.682 61.9857 198.857 61.9858 199.071ZM99.4624 194.995C99.5026 195.177 99.6623 195.307 99.8484 195.31L99.9272 195.302L103.015 194.657C103.117 194.636 103.206 194.575 103.262 194.488C103.319 194.4 103.337 194.294 103.314 194.193C103.293 194.09 103.233 194.001 103.145 193.943C103.058 193.886 102.952 193.865 102.849 193.886L99.7696 194.531C99.6673 194.552 99.5774 194.613 99.5198 194.7C99.4621 194.787 99.4415 194.893 99.4624 194.995ZM111.718 192.155C111.744 192.368 111.935 192.522 112.148 192.502C112.185 192.512 112.225 192.512 112.262 192.501C113.286 192.249 114.302 191.987 115.31 191.714C115.451 191.678 115.561 191.569 115.6 191.429C115.639 191.289 115.6 191.139 115.498 191.036C115.396 190.932 115.246 190.891 115.105 190.927L112.065 191.714C111.847 191.74 111.692 191.938 111.718 192.155ZM123.888 188.779C123.934 188.945 124.086 189.058 124.258 189.055V189.063C124.298 189.063 124.339 189.055 124.376 189.039C125.392 188.724 126.392 188.41 127.385 188.087C127.591 188.02 127.704 187.798 127.637 187.591C127.606 187.491 127.536 187.407 127.442 187.36C127.349 187.312 127.24 187.305 127.141 187.34C126.868 187.426 126.595 187.513 126.322 187.6C125.602 187.83 124.879 188.061 124.148 188.284C124.047 188.314 123.963 188.384 123.914 188.477C123.865 188.57 123.856 188.679 123.888 188.779ZM136.191 185.034C136.026 185.03 135.881 184.927 135.821 184.774C135.747 184.57 135.853 184.345 136.057 184.271C136.735 184.025 137.403 183.776 138.066 183.529L138.07 183.527L138.071 183.527C138.385 183.41 138.698 183.293 139.011 183.177C139.205 183.128 139.405 183.233 139.476 183.42C139.546 183.607 139.465 183.818 139.286 183.909C138.31 184.279 137.325 184.641 136.325 185.003C136.285 185.028 136.238 185.041 136.191 185.042V185.034ZM147.565 180.211C147.621 180.361 147.767 180.459 147.927 180.455C147.979 180.456 148.03 180.445 148.077 180.423L150.983 179.196C151.183 179.109 151.275 178.876 151.188 178.677C151.101 178.477 150.868 178.385 150.668 178.472C149.965 178.8 149.249 179.092 148.524 179.389L148.523 179.389C148.273 179.492 148.022 179.595 147.769 179.699C147.573 179.786 147.482 180.013 147.565 180.211Z" fill="#D1D3D4"/>
<path d="M27.5023 135.763C27.3822 135.764 27.2687 135.709 27.1951 135.614C27.062 135.44 27.0936 135.191 27.266 135.055C27.6913 134.74 28.1167 134.426 28.5499 134.119C28.665 134.03 28.8198 134.011 28.9526 134.071C29.0854 134.131 29.1745 134.259 29.1841 134.404C29.1938 134.549 29.1226 134.687 28.9989 134.764C28.5735 135.063 28.1561 135.37 27.7465 135.685C27.6762 135.737 27.5902 135.765 27.5023 135.763Z" fill="#D1D3D4"/>
<path d="M204.142 88.7507C204.041 88.7538 203.944 88.7137 203.874 88.6406C203.8 88.5681 203.758 88.4688 203.758 88.3652C203.758 88.2616 203.8 88.1623 203.874 88.0898C203.874 88.0898 204.26 87.6807 204.93 86.9411C205.016 86.8148 205.167 86.7498 205.318 86.7744C205.469 86.7989 205.592 86.9086 205.634 87.0556C205.676 87.2027 205.628 87.3605 205.512 87.4604C204.835 88.2472 204.441 88.6327 204.441 88.6327C204.363 88.7137 204.254 88.7568 204.142 88.7507Z" fill="#D1D3D4"/>
<path fill-rule="evenodd" clip-rule="evenodd" d="M204.969 17.2365H205.04V17.2129C205.223 17.2176 205.385 17.0926 205.426 16.9139C205.459 16.6996 205.316 16.4975 205.103 16.4576C204.045 16.2765 202.977 16.1557 201.905 16.0956C201.799 16.082 201.692 16.1148 201.612 16.1857C201.532 16.2566 201.487 16.3586 201.488 16.4654C201.481 16.5698 201.517 16.6725 201.586 16.7507C201.655 16.829 201.753 16.8764 201.858 16.8824C202.901 16.9395 203.94 17.0577 204.969 17.2365ZM211.105 19.0855C211.05 19.0964 210.994 19.0964 210.939 19.0855C209.991 18.6541 209.015 18.2861 208.017 17.984C207.877 17.9432 207.768 17.8306 207.733 17.6885C207.698 17.5464 207.742 17.3964 207.847 17.2951C207.953 17.1937 208.105 17.1564 208.246 17.1972C209.278 17.5063 210.289 17.8848 211.27 18.3302C211.365 18.3729 211.439 18.4522 211.475 18.55C211.51 18.6478 211.505 18.7558 211.459 18.8495C211.392 18.9829 211.254 19.0656 211.105 19.0619V19.0855ZM216.146 22.4295C216.22 22.4891 216.311 22.5223 216.406 22.524V22.5003C216.505 22.5003 216.6 22.4639 216.674 22.3981C216.825 22.2424 216.825 21.9951 216.674 21.8394C215.865 21.1228 215.004 20.4679 214.098 19.8802C213.98 19.7952 213.824 19.7822 213.694 19.8466C213.563 19.911 213.478 20.0421 213.474 20.1876C213.47 20.3331 213.546 20.4691 213.673 20.5412C214.544 21.1072 215.37 21.7385 216.146 22.4295ZM220.454 27.3786C220.318 27.3796 220.19 27.3115 220.116 27.1977C219.572 26.3114 218.967 25.4648 218.304 24.6641C218.168 24.4965 218.193 24.2508 218.359 24.1133C218.438 24.0452 218.541 24.0117 218.645 24.0206C218.749 24.0295 218.844 24.08 218.911 24.1605C219.594 24.9819 220.221 25.8495 220.785 26.7571C220.843 26.8451 220.862 26.9529 220.838 27.0554C220.814 27.1579 220.75 27.2463 220.659 27.3C220.597 27.3375 220.526 27.3566 220.454 27.355V27.3786ZM222.707 32.8628C222.762 33.0244 222.914 33.1325 223.085 33.1303V33.1067C223.126 33.1165 223.169 33.1192 223.211 33.1146C223.414 33.0438 223.523 32.823 223.455 32.6189C223.125 31.5989 222.739 30.5981 222.297 29.6211C222.238 29.4932 222.115 29.4065 221.975 29.3937C221.835 29.3808 221.698 29.4438 221.617 29.5589C221.535 29.674 221.522 29.8236 221.581 29.9516C222.009 30.9005 222.385 31.8724 222.707 32.8628ZM224.511 39.299C224.314 39.2976 224.148 39.1545 224.117 38.9607C223.967 37.9063 223.77 36.8677 223.542 35.8763C223.494 35.659 223.632 35.4442 223.849 35.3964C224.067 35.3486 224.282 35.4859 224.33 35.7032C224.558 36.7104 224.755 37.7726 224.912 38.8505C224.941 39.0646 224.795 39.2628 224.582 39.299H224.511ZM224.629 45.208C224.633 45.4222 224.808 45.5936 225.023 45.5936H225.031C225.246 45.5851 225.417 45.4079 225.417 45.1923C225.393 44.1065 225.338 43.0364 225.259 42.0057C225.251 41.9012 225.202 41.8042 225.122 41.7363C225.042 41.6684 224.938 41.635 224.834 41.6437C224.73 41.6497 224.633 41.6974 224.564 41.7759C224.496 41.8544 224.463 41.9571 224.471 42.0607C224.55 43.0836 224.629 44.1379 224.629 45.208ZM224.842 51.9353H224.802C224.587 51.9146 224.429 51.7252 224.448 51.5105C224.448 51.322 224.468 51.1361 224.489 50.9498C224.504 50.8095 224.52 50.6689 224.526 50.5269C224.526 50.0815 224.553 49.6389 224.579 49.2028L224.579 49.2028C224.595 48.9226 224.612 48.645 224.621 48.371C224.621 48.266 224.664 48.1655 224.74 48.0927C224.815 48.0199 224.918 47.9812 225.023 47.9855C225.238 47.994 225.409 48.1712 225.409 48.3868C225.409 48.932 225.377 49.4818 225.344 50.043L225.344 50.0431C225.334 50.2189 225.324 50.3959 225.314 50.5741C225.314 50.8257 225.288 51.0729 225.262 51.3223C225.253 51.4083 225.243 51.4945 225.235 51.5813C225.212 51.7813 225.043 51.9328 224.842 51.9353ZM223.4 58.1355H223.518H223.55C223.703 58.1369 223.843 58.0515 223.912 57.9152C224.211 56.8215 224.479 55.775 224.7 54.7679C224.739 54.5559 224.603 54.3508 224.393 54.3037C224.182 54.2598 223.975 54.3929 223.928 54.6027C223.723 55.5862 223.455 56.6091 223.14 57.6398C223.078 57.8481 223.193 58.0678 223.4 58.1355ZM221.226 64.0524C221.172 64.0636 221.115 64.0636 221.061 64.0524C220.966 64.0097 220.892 63.9304 220.857 63.8326C220.821 63.7348 220.826 63.6268 220.872 63.5331C221.321 62.5496 221.738 61.5739 222.101 60.6297C222.138 60.5312 222.213 60.4516 222.309 60.4087C222.405 60.3658 222.514 60.3633 222.612 60.4016C222.815 60.482 222.916 60.7088 222.841 60.913C222.463 61.8729 222.053 62.8643 221.589 63.8557C221.518 63.9722 221.394 64.0459 221.258 64.0524H221.226ZM218.107 69.6388C218.166 69.6761 218.234 69.6953 218.304 69.6939H218.336C218.464 69.6825 218.579 69.6091 218.643 69.4972C219.186 68.553 219.706 67.6167 220.179 66.6961C220.279 66.5027 220.203 66.265 220.009 66.165C219.816 66.0651 219.578 66.1408 219.478 66.3342C219.013 67.239 218.501 68.1753 217.965 69.1038C217.911 69.1931 217.896 69.3005 217.923 69.4013C217.95 69.5021 218.016 69.5878 218.107 69.6388ZM214.933 75.0758C214.785 75.0804 214.648 75.0004 214.579 74.8698C214.511 74.7392 214.522 74.5809 214.61 74.4621C215.185 73.6044 215.768 72.7232 216.335 71.8105C216.453 71.6292 216.693 71.5735 216.878 71.6846C217.061 71.8021 217.114 72.0449 216.997 72.2275C216.453 73.1009 215.87 73.9978 215.264 74.9027C215.196 75.0034 215.086 75.0673 214.964 75.0758H214.933ZM210.995 80.1665C211.064 80.2145 211.146 80.2418 211.231 80.2452L211.262 80.2609C211.378 80.2489 211.482 80.1853 211.546 80.0878C212.168 79.2774 212.798 78.4198 213.444 77.5228C213.57 77.3446 213.528 77.098 213.35 76.972C213.171 76.846 212.924 76.8883 212.798 77.0664C212.16 77.9555 211.53 78.821 210.924 79.6079C210.791 79.7822 210.822 80.0309 210.995 80.1665ZM207.033 85.1077C207.106 85.1684 207.198 85.2018 207.293 85.2022C207.422 85.2151 207.55 85.1618 207.631 85.0605C208.246 84.3367 208.931 83.5105 209.656 82.5978C209.722 82.5171 209.753 82.4129 209.741 82.3091C209.729 82.2052 209.676 82.1107 209.593 82.047C209.423 81.9131 209.176 81.9412 209.041 82.11C208.701 82.52 208.371 82.9248 208.054 83.3138L208.054 83.314C207.696 83.7535 207.354 84.173 207.033 84.557C206.959 84.6295 206.917 84.7288 206.917 84.8324C206.917 84.936 206.959 85.0352 207.033 85.1077Z" fill="#D1D3D4"/>
<path d="M197.108 17.0084C196.968 17.0196 196.832 16.955 196.751 16.8389C196.671 16.7228 196.659 16.5728 196.72 16.4455C196.781 16.3181 196.905 16.2328 197.045 16.2215C197.567 16.14 198.093 16.0875 198.621 16.0642C198.838 16.0511 199.025 16.2167 199.038 16.434C199.051 16.6512 198.885 16.838 198.668 16.851C197.715 16.9061 197.148 16.9926 197.148 16.9926L197.108 17.0084Z" fill="#D1D3D4"/>
<path d="M1.63426 52.0083C0.731956 50.9055 0.895362 49.2799 1.9991 48.3787L24.8514 29.7207C25.9535 28.8209 27.5763 28.984 28.4772 30.0852L37.7085 41.3677C38.6108 42.4705 38.4474 44.0961 37.3437 44.9973L14.4913 63.6553C13.3892 64.5551 11.7665 64.392 10.8655 63.2908L1.63426 52.0083Z" fill="white"/>
<path fill-rule="evenodd" clip-rule="evenodd" d="M12.5446 64.8629H12.7888C13.3409 64.8639 13.876 64.6718 14.3011 64.3199L38.0489 44.9327C38.5462 44.5363 38.8626 43.9564 38.9263 43.324C38.99 42.6917 38.7958 42.0604 38.3876 41.5729L28.4159 29.3851C28.0191 28.8883 27.4386 28.5723 26.8056 28.5086C26.1725 28.4449 25.5406 28.6389 25.0526 29.0467L1.30479 48.4419C0.807478 48.8382 0.491172 49.4182 0.427426 50.0505C0.363681 50.6829 0.557883 51.3142 0.966102 51.8016L10.9693 63.9973C11.3598 64.4819 11.9259 64.793 12.5446 64.8629ZM25.5488 29.6526C25.8383 29.4242 26.1961 29.2995 26.5649 29.2985C27.0511 29.2978 27.5104 29.5214 27.8094 29.9044L37.7811 42.0686C38.0564 42.3945 38.1874 42.818 38.1444 43.2421C38.1013 43.6663 37.8878 44.0549 37.5527 44.3189L13.8206 63.7141C13.4908 63.9809 13.0695 64.108 12.647 64.0682C12.2234 64.0277 11.8341 63.8176 11.5679 63.4859L1.59623 51.3059C1.32942 50.9733 1.20234 50.5501 1.24178 50.1257C1.27634 49.7061 1.47777 49.3179 1.80102 49.0477L25.5488 29.6526Z" fill="#D1D3D4"/>
<path d="M0.848109 50.3617C0.630604 50.3617 0.454281 50.1856 0.454281 49.9683C0.443336 49.8647 0.474835 49.7611 0.541605 49.681C0.608375 49.601 0.704731 49.5513 0.808726 49.5434L20.6025 47.8281L26.2264 28.7949C26.2537 28.6935 26.3213 28.6077 26.4135 28.5572C26.5056 28.5067 26.6144 28.4959 26.7147 28.5274C26.9204 28.5916 27.0362 28.809 26.9746 29.0152L21.2878 48.3081C21.2455 48.4641 21.1103 48.5772 20.9491 48.5914L0.887491 50.3617H0.848109Z" fill="#D1D3D4"/>
<path d="M21.721 45.7667C21.5035 45.7667 21.3271 45.5905 21.3271 45.3733C21.3271 45.156 21.5035 44.9798 21.721 44.9798L38.4665 43.0679C38.6803 43.0491 38.8711 43.2016 38.8997 43.4141C38.9131 43.5185 38.8839 43.624 38.8187 43.7068C38.7536 43.7896 38.6579 43.8429 38.5532 43.8547L21.7919 45.7667H21.721Z" fill="#D1D3D4"/>
<path d="M12.7652 64.8629C12.7262 64.8703 12.6861 64.8703 12.6471 64.8629C12.5466 64.8323 12.4629 64.7622 12.4154 64.6686C12.3678 64.5751 12.3605 64.4662 12.395 64.3672L17.6014 48.3553C17.6451 48.2148 17.7604 48.1081 17.9041 48.0756C18.0477 48.0431 18.1979 48.0896 18.2979 48.1976C18.3979 48.3056 18.4327 48.4587 18.3891 48.5992L13.1827 64.6111C13.1163 64.7794 12.9453 64.8825 12.7652 64.8629Z" fill="#D1D3D4"/>
<path d="M214.567 105.874C215.022 104.825 216.241 104.344 217.29 104.798L239.064 114.229C240.114 114.684 240.596 115.904 240.141 116.953L235.473 127.708C235.018 128.756 233.799 129.238 232.751 128.783L210.976 119.353C209.926 118.898 209.444 117.678 209.899 116.628L214.567 105.874Z" fill="white"/>
<path fill-rule="evenodd" clip-rule="evenodd" d="M233.041 129.319C233.29 129.426 233.558 129.482 233.829 129.485C234.084 129.477 234.335 129.42 234.569 129.319C235.061 129.125 235.455 128.743 235.664 128.257L240.705 116.667C240.91 116.179 240.91 115.629 240.705 115.141C240.511 114.647 240.128 114.251 239.642 114.039L217.012 104.243C215.999 103.809 214.824 104.273 214.382 105.282L209.348 116.888C209.148 117.379 209.148 117.93 209.348 118.422C209.544 118.915 209.93 119.31 210.42 119.515L233.041 129.319ZM215.161 105.597C215.353 105.154 215.789 104.866 216.272 104.865C216.427 104.867 216.58 104.902 216.721 104.967L239.334 114.771C239.633 114.895 239.867 115.137 239.98 115.44C240.102 115.734 240.102 116.066 239.98 116.36L234.939 127.974C234.816 128.27 234.577 128.503 234.278 128.619C233.98 128.741 233.646 128.741 233.348 128.619L210.719 118.815C210.112 118.552 209.831 117.85 210.089 117.242L215.161 105.597Z" fill="#D1D3D4"/>
<path d="M224.408 118.611C224.274 118.613 224.148 118.545 224.078 118.43L215.413 104.755C215.298 104.57 215.354 104.327 215.539 104.212C215.724 104.097 215.968 104.153 216.083 104.338L224.574 117.784L240.209 114.787C240.311 114.764 240.419 114.783 240.507 114.841C240.594 114.899 240.655 114.99 240.673 115.094C240.712 115.308 240.572 115.514 240.358 115.558L224.463 118.611H224.408Z" fill="#D1D3D4"/>
<path d="M234.285 129.414C234.153 129.414 234.03 129.349 233.955 129.241L226.409 118.028C226.29 117.848 226.339 117.606 226.519 117.485C226.605 117.426 226.712 117.405 226.814 117.426C226.917 117.446 227.006 117.508 227.063 117.596L234.608 128.839C234.728 129.022 234.679 129.267 234.498 129.39C234.43 129.416 234.357 129.424 234.285 129.414Z" fill="#D1D3D4"/>
<path d="M209.774 118.815C209.579 118.818 209.411 118.677 209.38 118.485C209.364 118.381 209.39 118.276 209.452 118.192C209.514 118.108 209.607 118.052 209.711 118.036L223.101 115.849C223.242 115.826 223.384 115.881 223.474 115.991C223.563 116.102 223.587 116.252 223.537 116.384C223.486 116.517 223.368 116.613 223.227 116.636L209.837 118.823L209.774 118.815Z" fill="#D1D3D4"/>
<path d="M63.0313 13.6785C63.2942 12.8861 64.1495 12.4567 64.9421 12.7191L81.4124 18.1731C82.2056 18.4358 82.6355 19.292 82.3723 20.0851L79.6718 28.223C79.4089 29.0154 78.5536 29.4448 77.761 29.1824L61.2907 23.7284C60.4975 23.4657 60.0676 22.6095 60.3308 21.8164L63.0313 13.6785Z" fill="white"/>
<path fill-rule="evenodd" clip-rule="evenodd" d="M77.9438 29.6526C78.1015 29.7043 78.2663 29.7309 78.4322 29.7313C79.1115 29.7319 79.7147 29.2974 79.9287 28.6533L82.8352 19.8724C83.1056 19.0513 82.6625 18.1661 81.8427 17.8896L64.727 12.2245C63.9052 11.9601 63.0235 12.4058 62.75 13.2237L59.8356 22.0047C59.7054 22.3991 59.7365 22.829 59.9223 23.2006C60.1084 23.5721 60.434 23.8549 60.8281 23.9875L77.9438 29.6526ZM78.7866 28.9051C78.5949 28.9838 78.3798 28.9838 78.188 28.9051L61.0959 23.2793C60.8988 23.2158 60.7347 23.0773 60.639 22.8938C60.5643 22.7014 60.5643 22.4881 60.639 22.2958L63.5534 13.5149C63.6187 13.3209 63.7572 13.16 63.9393 13.0664C64.1248 12.9723 64.34 12.9553 64.5379 13.0192L81.6537 18.6843C81.8493 18.7515 82.0105 18.8928 82.1027 19.0777C82.1814 19.2693 82.1814 19.4841 82.1027 19.6757L79.1805 28.4487C79.115 28.647 78.9733 28.8112 78.7866 28.9051Z" fill="#D1D3D4"/>
<path d="M70.9889 22.4295C70.8653 22.4283 70.749 22.3703 70.6739 22.2722L63.4668 12.8775C63.35 12.7055 63.3874 12.4724 63.5521 12.3453C63.7168 12.2183 63.952 12.2412 64.0891 12.3976L71.1071 21.5798L82.2288 18.4325C82.3301 18.4035 82.4388 18.4164 82.5306 18.4681C82.6224 18.5199 82.6896 18.6062 82.7171 18.7079C82.7724 18.9163 82.6495 19.1303 82.4414 19.1878L71.0677 22.4453L70.9889 22.4295Z" fill="#D1D3D4"/>
<path d="M78.881 29.6526C78.7607 29.6544 78.6466 29.5989 78.5738 29.5031L72.3514 21.808C72.2143 21.6385 72.2408 21.3901 72.4104 21.2533C72.5801 21.1164 72.8287 21.1428 72.9657 21.3123L79.1882 29.0153C79.3223 29.185 79.2941 29.4309 79.1252 29.566C79.0556 29.621 78.9698 29.6515 78.881 29.6526Z" fill="#D1D3D4"/>
<path d="M60.316 23.5153C60.1753 23.5322 60.0363 23.4728 59.9513 23.3595C59.8663 23.2462 59.8483 23.0963 59.904 22.9661C59.9598 22.836 60.0808 22.7454 60.2215 22.7285L69.8151 20.2736C69.9164 20.2474 70.0241 20.2625 70.1142 20.3156C70.2044 20.3688 70.2696 20.4556 70.2956 20.5569C70.3217 20.6571 70.3064 20.7636 70.253 20.8524C70.1997 20.9412 70.1128 21.0049 70.012 21.029L60.4184 23.4917L60.316 23.5153Z" fill="#D1D3D4"/>
</svg>
