<svg width="103" height="103" viewBox="0 0 103 103" fill="none" xmlns="http://www.w3.org/2000/svg">
<path d="M0 0H83C94.0457 0 103 8.9543 103 20V83C103 94.0457 94.0457 103 83 103H0V0Z" fill="#7C5DFA"/>
<mask id="mask0_1_8828" style="mask-type:luminance" maskUnits="userSpaceOnUse" x="0" y="0" width="103" height="103">
<path d="M0 0H83C94.0457 0 103 8.9543 103 20V83C103 94.0457 94.0457 103 83 103H0V0Z" fill="white"/>
</mask>
<g mask="url(#mask0_1_8828)">
<path d="M103 52H20C8.95431 52 0 60.9543 0 72V135C0 146.046 8.95431 155 20 155H103V52Z" fill="#9277FF"/>
</g>
<path d="M61.3047 33.2931C67.6637 36.6416 72 43.3141 72 51.0002C71.9999 62.0458 63.0456 71.0002 52 71.0002C40.9544 71.0002 32.0001 62.0458 32 51.0002C32 43.3144 36.3357 36.6417 42.6943 33.2931L52 52.0002L61.3047 33.2931Z" fill="white"/>
</svg>
